<svg xmlns="http://www.w3.org/2000/svg" width="107.866" height="47.872" viewBox="0 0 107.866 47.872">
  <title>Host</title>
  <g>
    <path d="M13.141,47.276a7.771,7.771,0,0,0,4.56-3.955,7.746,7.746,0,0,0,4.555,3.955,10.839,10.839,0,0,0,3.562.594,8.761,8.761,0,0,0,7.174-3.319,3.94,3.94,0,0,0,.29-.595,12.788,12.788,0,0,0,2.175,1.412,18.291,18.291,0,0,0,5.761,1.646l2.843.434a26.5,26.5,0,0,0,3.952.362,14.581,14.581,0,0,0,2.98-.293,14.14,14.14,0,0,0,6.437-3.372,10.239,10.239,0,0,0,6.681,3.2,30.539,30.539,0,0,0,3.674.244,20.169,20.169,0,0,0,4.684-.52,14.968,14.968,0,0,0,8.669-5.64,13.934,13.934,0,0,0,9.52,6.216,15.445,15.445,0,0,0,2.593.218,18.9,18.9,0,0,0,9.049-2.492,10.723,10.723,0,0,0,4.667-4.62,8.384,8.384,0,0,0-3.138-11,7.656,7.656,0,0,0-4.592-1.08,8.322,8.322,0,0,0,1.375-1.59,7.81,7.81,0,0,0-4.293-11.837v-4.4A11.666,11.666,0,0,0,94.2,3.413,8.863,8.863,0,0,0,86.531.043a8,8,0,0,0-6.468,4.193,9.093,9.093,0,0,0-.993,4.456c0,2.558.008,5.137.025,7.691-.2.157-.333.389-.52.565a9.751,9.751,0,0,0-.923-.617,14.949,14.949,0,0,0-18.529,4.527c-.093.132-.126.273-.214.405a16.306,16.306,0,0,0-2.72-2.681,18.929,18.929,0,0,0-9.8-3.676,15.208,15.208,0,0,0-9.639,1.964,12.606,12.606,0,0,0-1.377,1.066c-.094-6.918-.541-12.79-1.3-14.03C30.723-1.526,23.428-.055,21.209,1.063,19.085,2.1,18.15,2.665,17.7,5.953,17.256,2.6,16.333,2.135,14.255,1.1,11.973-.055,4.67-1.526,1.325,3.908-.621,7.067-.554,40.613,2.4,44.547,5.057,48.08,9.837,48.442,13.141,47.276Z" fill="#fff"/>
    <g>
      <path d="M27.892,40.711c-1.026,1.365-4.476.711-4.447-.277s0-2.213,0-2.213c0-.858.025-6.2.083-12.247-2.722.125-8.541.358-11.655.237.055,5.946.075,11.162.079,12.01,0,0-.029,1.224,0,2.213s-3.42,1.642-4.447.277S5.884,8.68,6.761,7.254s4.181-.678,4.618-.457c.216.108.357,7.176.445,14.6,3.1-.362,9-1,11.762-1,.087-7.041.225-13.489.432-13.591.437-.221,3.741-.967,4.618.457S28.919,39.347,27.892,40.711Z" fill="#231f20"/>
      <path d="M55.981,34.919a10.482,10.482,0,0,1-.96,2.284A8.163,8.163,0,0,1,49.7,41.266a8.281,8.281,0,0,1-1.684.16,21.2,21.2,0,0,1-3.055-.3L43.487,40.9l-1.3-.2-.037,0a12.414,12.414,0,0,1-3.8-1.022C35.066,38,33.337,33.3,34.572,29.416a13,13,0,0,1,2.381-4.167A11.78,11.78,0,0,1,40,22.367a8.5,8.5,0,0,1,4.555-1.162c.4,0,.827.019,1.264.058a12.593,12.593,0,0,1,6.5,2.392,10.445,10.445,0,0,1,3.949,6.4A10.969,10.969,0,0,1,55.981,34.919Zm-4.559-2.8a7.577,7.577,0,0,0-.275-2.435c-.972-3.165-4.534-3.932-5.611-4.092a6.524,6.524,0,0,0-1.11-.1,3.171,3.171,0,0,0-1.579.361,6.512,6.512,0,0,0-1.563,1.592,11.856,11.856,0,0,0-2.361,4.144c-.374,1.43-.133,3.382,1.06,4.192a4.06,4.06,0,0,0,1.97.549q1.384.145,2.756.28c.918.092,1.837.183,2.76.283.27.027.578.058.868.058a2.833,2.833,0,0,0,.682-.073C50.615,36.426,51.376,34.162,51.422,32.115Z" fill="#231f20"/>
      <path d="M76.289,37.325a8.546,8.546,0,0,1-5.312,3.537,13.9,13.9,0,0,1-3.192.343,24,24,0,0,1-2.905-.2c-.624-.075-2.54-.3-3.176-1.866a2.36,2.36,0,0,1,4.248-2.033c.038.063.092.169.142.277a.8.8,0,0,1,.041.083,2.152,2.152,0,0,0,.249.056,7.482,7.482,0,0,0,5.678-1.444,3.07,3.07,0,0,0,1.164-1.5c.312-1.134-.74-2.435-1.941-3.034a13.113,13.113,0,0,0-2.689-.889,21.339,21.339,0,0,1-2.245-.667c-1.812-.713-2.868-1.971-2.834-3.371a3.753,3.753,0,0,1,.8-2.054A8.566,8.566,0,0,1,74.8,22.042a2.118,2.118,0,0,1,1.417,1.885,1.73,1.73,0,0,1-.573,1.276A2.206,2.206,0,0,1,74,25.766a4.022,4.022,0,0,1-1.467-.473c-.108-.052-.216-.106-.329-.152a3.79,3.79,0,0,0-4.405,1.174.721.721,0,0,0-.1.2,31.2,31.2,0,0,1,4.9,1.611,8.34,8.34,0,0,1,3.737,2.644A6.01,6.01,0,0,1,76.289,37.325Z" fill="#231f20"/>
      <path d="M101.236,37.941a4.446,4.446,0,0,1-2.029,1.845,12.6,12.6,0,0,1-5.956,1.694,9.047,9.047,0,0,1-1.517-.127,7.3,7.3,0,0,1-5.869-4.67,11.1,11.1,0,0,1-.332-4.135c.091-2.155.254-4.475.482-6.892a.27.27,0,0,0-.058-.183.259.259,0,0,0-.179-.091,4.293,4.293,0,0,1-2.76-.975,2.222,2.222,0,0,1-.569-2.074,1.481,1.481,0,0,1,1-1.124,3.264,3.264,0,0,1,1.043-.054c.5.029.831.033,1.01-.168-.025-4.026-.05-8.188-.05-12.295A3.052,3.052,0,0,1,85.7,7.233a1.611,1.611,0,0,1,1.351-.827,2.455,2.455,0,0,1,2.082.9,5.718,5.718,0,0,1,.8,3.539V21.159a3.134,3.134,0,0,0,2.46.077l.15-.031c1.213-.225,2.652.044,2.951,1.155a1.432,1.432,0,0,1-.2,1.2,3.214,3.214,0,0,1-2.145,1.2c-.149.025-.311.05-.478.075-.926.137-1.891.281-2.323.989a2.8,2.8,0,0,0-.278,1.472l-.079,5.363c0,1.736.091,3.38,1.2,4.348a3.605,3.605,0,0,0,3.08.68,5.857,5.857,0,0,0,2.614-1.114q.188-.141.374-.285c.977-.752,2.191-1.687,3.359-1.008A2.03,2.03,0,0,1,101.236,37.941Z" fill="#231f20"/>
    </g>
  </g>
</svg>
