<svg xmlns="http://www.w3.org/2000/svg" width="101.262" height="47.8" viewBox="0 0 101.262 47.8">
  <title>Join</title>
  <g>
    <path d="M101.013,36.621a7.773,7.773,0,0,0-5.8-5.58,44.971,44.971,0,0,0-1.267-6.17c-2.527-8.421-7.025-11.459-14.589-9.849l-.2.046a6.45,6.45,0,0,0-2.93-.671,16.085,16.085,0,0,0-5.433.873,7.027,7.027,0,0,0-3.173,2.492,9.583,9.583,0,0,0,.6-3.853,8.1,8.1,0,0,0-5.652-6.8A10.835,10.835,0,0,0,51.535,9.893,6.415,6.415,0,0,0,50.009,12.7a10.135,10.135,0,0,0,.011,5.387,19.118,19.118,0,0,0-9.155-3.255A15.178,15.178,0,0,0,31.227,16.8c-.208.123-.341.286-.537.416C30.1,9.271,29.614,3.981,25.562,1.367,21.044-1.551,7.922.382,4.534,5.467l0,0A8.244,8.244,0,0,0,3.3,11.714a10.917,10.917,0,0,0,4.676,6.492A6.456,6.456,0,0,0,9.2,18.83a8.415,8.415,0,0,0,4.58.53c.495,3.35.894,6.583,1.11,9.125a7.588,7.588,0,0,0-2.012-1.309C8.454,25.193,5.017,25.657,2.7,28.514A13.872,13.872,0,0,0,.17,38.687a10.064,10.064,0,0,0,4.872,7c2.265,1.339,6.1,2.1,10.1,2.1,4.9,0,10.016-1.155,12.817-3.762A12.847,12.847,0,0,0,29.934,45.3,18.327,18.327,0,0,0,35.7,46.941l2.843.435a26.515,26.515,0,0,0,3.953.361,13.9,13.9,0,0,0,10.638-4.792,12.612,12.612,0,0,0,10.106,4.846,13.7,13.7,0,0,0,2.494-.23,10.025,10.025,0,0,0,4.938-2.637,8.4,8.4,0,0,0,7.041,2.822,8.908,8.908,0,0,0,5.237-1.9,9.791,9.791,0,0,0,3.612,1.538,21.335,21.335,0,0,0,4.168.414,18.156,18.156,0,0,0,4.5-.541l.008,0c4.572-1.182,6.613-6.2,5.881-10.179C101.087,36.925,101.054,36.773,101.013,36.621Z" fill="#fff"/>
    <g>
      <path d="M9.846,9.008c1.3-1.945,10.487-3.416,12.258-2.275s1.941,7.93,2.531,14.942.885,15.318-.881,17.571-11.9,3.049-15.47.945-1.106-7.07-.649-7.626,1.717.029,2.727.48-.574,2.77,0,4.316,8.283.33,10.445-1.9-2.024-24.971-2.024-24.971-3.409-.6-4.564,1-1.426,1.885-2.743,1.382C11.476,12.865,8.554,10.951,9.846,9.008Z" fill="#231f20"/>
      <path d="M50.458,34.846a10.413,10.413,0,0,1-.96,2.284,8.163,8.163,0,0,1-5.324,4.063,8.278,8.278,0,0,1-1.683.16,21.191,21.191,0,0,1-3.055-.3l-1.472-.224-1.3-.2-.037,0a12.424,12.424,0,0,1-3.8-1.023c-3.284-1.679-5.013-6.38-3.778-10.262a13.011,13.011,0,0,1,2.381-4.166,11.8,11.8,0,0,1,3.043-2.883,8.5,8.5,0,0,1,4.555-1.162c.4,0,.827.019,1.264.059a12.581,12.581,0,0,1,6.5,2.392,10.439,10.439,0,0,1,3.949,6.4A10.953,10.953,0,0,1,50.458,34.846Zm-4.559-2.8a7.616,7.616,0,0,0-.274-2.436c-.973-3.165-4.535-3.932-5.612-4.092a6.626,6.626,0,0,0-1.109-.1,3.172,3.172,0,0,0-1.58.362,6.477,6.477,0,0,0-1.563,1.592,11.854,11.854,0,0,0-2.36,4.144c-.375,1.43-.133,3.381,1.059,4.192a4.077,4.077,0,0,0,1.971.548c.922.1,1.841.189,2.755.281s1.837.185,2.76.282c.27.027.578.059.869.059A2.824,2.824,0,0,0,43.5,36.8C45.092,36.353,45.853,34.09,45.9,32.043Z" fill="#231f20"/>
      <path d="M56.2,14.251c1.762-1.887,5.457-1.6,5.661.329a3.118,3.118,0,0,1-1.231,2.627,4.533,4.533,0,0,1-3.366.245C56,17.042,55.833,15.729,56.2,14.251Zm8.362,27.032a6.7,6.7,0,0,1-8.013-6.8c-.042-4.051-.179-8.055-.179-12.106,0-.359.362-1.035.632-1.035a6.025,6.025,0,0,1,3.1,0A2.957,2.957,0,0,1,61.46,23.6c.088,4.2.046,8.392.042,12.544,0,.048.183,2.323,1.326,1.22a3.5,3.5,0,0,1,1.238-.983,2.51,2.51,0,0,1,3.242,1.575C67.716,39.167,66.049,41.012,64.565,41.283Z" fill="#231f20"/>
      <path d="M93.635,41.077a13.66,13.66,0,0,1-5.831.048c-1.775-.374-2.565-1.821-2.752-3.828a89.807,89.807,0,0,0-1.534-10.2c-.357-1.679-.582-1.956-.889-2.2s-1.314.172-1.505.513c-.116.208-.474.742-.561.967-1.866,4.852-2,4.873-1.1,13.161.087.79-.366,1.754-2.049,1.831a2.448,2.448,0,0,1-2.39-1.177c-.653-.887-.574-1.213-.715-2.473-.374-3.125-.607-6.3-1.072-9.424-.283-2.008-.383-4.013-.753-6.021A.879.879,0,0,1,73,21.259a9.688,9.688,0,0,1,3.221-.478c.328,0,.607,1.26.935,1.96.278.559.42,1.141.7,1.7a2.994,2.994,0,0,1,.483-1.742,4.574,4.574,0,0,1,2.331-1.429c3.525-.751,5.337-.628,7.158,5.436A62.442,62.442,0,0,1,89.279,34.5c.013.1.029.2.042.3v0l.025.218c.095.653.536,2.546,2.452,2.415,1.4-.326,2.71-.466,3.038.794C94.973,38.978,94.711,40.8,93.635,41.077Z" fill="#231f20"/>
    </g>
  </g>
</svg>
