<svg xmlns="http://www.w3.org/2000/svg" width="279.372" height="47.883" viewBox="0 0 279.372 47.883">
  <title>Quick Match</title>
  <g>
    <path d="M98.231,45.4a8.12,8.12,0,0,0,4.091,2.206,8.839,8.839,0,0,0,2,.226,8.055,8.055,0,0,0,5.761-2.348A9.882,9.882,0,0,0,119.4,47.32a7.727,7.727,0,0,0,5.166-4.458,7.64,7.64,0,0,0-.524-6.694,8.009,8.009,0,0,1-.532-1.307,22.431,22.431,0,0,0-1.143-2.7l-.262-.536c-.278-.567-.577-1.18-.931-1.825.225-.22.466-.444.732-.681.881-.848,3.7-3.916,3-7.831-.383-1.993-1.771-4.636-6.276-5.933A10.639,10.639,0,0,0,114,15.079c0-.389,0-.776,0-1.162l-.008-4.587a9.134,9.134,0,0,0-3.712-7.369,10.517,10.517,0,0,0-9.464-1.39,8.431,8.431,0,0,0-2.036,1.155,7.777,7.777,0,0,0-2.515,8.442c-.03,1.914-.076,3.832-.119,5.749a26.262,26.262,0,0,0-10.746-.9c-5.272.693-8.793,4.341-10.715,8.71,0-.148,0-.282,0-.43a9.636,9.636,0,0,0-.969-3.567,9.915,9.915,0,0,0,1.347-5.76,8.1,8.1,0,0,0-5.653-6.8A10.839,10.839,0,0,0,58.376,9.95a6.415,6.415,0,0,0-1.525,2.807,11.431,11.431,0,0,0-.322,2.392,9.944,9.944,0,0,0-7.421.9,7.486,7.486,0,0,0-1.28.956L47.823,17a8.06,8.06,0,0,0-6.134-2.037A10.037,10.037,0,0,0,40,15.214C37.226,4.855,29.6,0,23.8,0,10.229,0,0,10.621,0,24.7,0,39.9,9.88,47.856,19.643,47.856a21.66,21.66,0,0,0,6.763-1.077,7.6,7.6,0,0,0,3.57,1.075c.071,0,.141,0,.212,0,3.138,0,6.029-2.115,7.975-4.4,2.365,2.854,5.82,4.307,10.355,4.307a12.16,12.16,0,0,0,3.6-.524,9.125,9.125,0,0,0,3.4.611,15.092,15.092,0,0,0,2.128-.169h.008a7.172,7.172,0,0,0,4.534-2.516,12.941,12.941,0,0,0,7.886,2.679,13.706,13.706,0,0,0,2.494-.231,10.18,10.18,0,0,0,5.585-3.254c.309.288.6.591.94.856a13.262,13.262,0,0,0,8.346,2.62,27.413,27.413,0,0,0,8.716-1.631C96.761,46,97.483,45.732,98.231,45.4Z" fill="#fff"/>
    <path d="M275.98,20.2a12.981,12.981,0,0,0-9.452-5.255c-.012-.16-.02-.323-.033-.487l-.416-5.316a9.908,9.908,0,0,0-3.52-7.078,9.672,9.672,0,0,0-7.27-1.989,7.958,7.958,0,0,0-5.748,3.311,8.386,8.386,0,0,0-.956,7c.134,1.7.343,3.388.528,5.08a26.87,26.87,0,0,0-9.065-.45c-5.486.722-9.066,4.645-10.929,9.249a7.691,7.691,0,0,0-.09-3.575,7.812,7.812,0,0,0-5.341-5.46v-4.4A11.668,11.668,0,0,0,221.565,3.4,8.842,8.842,0,0,0,213.9.026a8,8,0,0,0-6.467,4.194,9.083,9.083,0,0,0-.994,4.456c0,2.558.009,5.137.025,7.691a7.388,7.388,0,0,0-.5.545,8.759,8.759,0,0,0-.788-.763,8.61,8.61,0,0,0-7.864-1.106,12.357,12.357,0,0,0-5.4.119,15.3,15.3,0,0,0-6.837,3.871c-.033.032-.063.069-.1.1q-.159-3.131-.328-6.1a15.332,15.332,0,0,0-2.012-7.7,10.308,10.308,0,0,0-13.213-4.123,10.792,10.792,0,0,0-3.317,2.658L160.129,10.5c-.582-.7-1.176-1.488-1.8-2.317-.914-1.2-1.862-2.446-2.951-3.693-.956-1.06-3.491-3.87-7.415-4.383a9.691,9.691,0,0,0-8.234,2.75,8.909,8.909,0,0,0-2.543,7.674c1.084,6.875,1.18,14.23,1.271,21.4l.046,3.3c.025,1.714.087,6.269,3.787,9.426a9.4,9.4,0,0,0,11,.7A8.52,8.52,0,0,0,157.1,36a30.487,30.487,0,0,1-.815-6.245,14.184,14.184,0,0,0,2.69.974,11.312,11.312,0,0,0,8.308-1.251c.121,3.377.2,6.765.229,10.146a8.278,8.278,0,0,0,7.074,8.1,13.448,13.448,0,0,0,1.866.135,9.607,9.607,0,0,0,6.935-2.768,16.547,16.547,0,0,0,5.472,2.084,25.641,25.641,0,0,0,5.474.709,13.439,13.439,0,0,0,5.532-1.116l.266.066a17.664,17.664,0,0,0,4.19.491l.868-.021a9.729,9.729,0,0,0,6.175-2.66,14.117,14.117,0,0,0,6.664,2.986,15.355,15.355,0,0,0,2.594.219,18.822,18.822,0,0,0,9.036-2.488,13.237,13.237,0,0,0,2.4-1.683,14.17,14.17,0,0,0,1.689,1.542,13.262,13.262,0,0,0,8.346,2.62,27.413,27.413,0,0,0,8.716-1.631c.55-.187,1.2-.415,1.874-.7a8.471,8.471,0,0,0,5.017,2.133,11.907,11.907,0,0,0,2.1.205,7.837,7.837,0,0,0,4.672-1.452c.029-.021.062-.044.091-.067a10.131,10.131,0,0,0,4.177,1.228,7.409,7.409,0,0,0,6.385-1.1c2.036-1.492,3.129-3.824,3.246-6.885.033-.432.062-.885.112-1.309.1-.861.224-1.69.345-2.494C279.5,31.33,280.34,25.815,275.98,20.2Z" fill="#fff"/>
    <g>
      <path d="M34.4,37.685c-.44,1.314-2.942,3.826-4.231,3.787-.482-.017-1.625-.894-2.872-2.072a15.04,15.04,0,0,1-7.656,2.072C13,41.472,6.384,35.709,6.384,24.7S14.348,6.388,23.8,6.388c3.055,0,10.961,3.674,10.961,17.2a20.822,20.822,0,0,1-2.748,11.145C33.484,35.987,34.573,37.174,34.4,37.685Zm-14.759.854a7.361,7.361,0,0,0,4.676-2.371,6.373,6.373,0,0,1-1.48-2.566c-.025-.462,1.438-2.995,2.777-3a6,6,0,0,1,2.1.981,20.883,20.883,0,0,0,2.352-7.866C30.8,15.54,26.048,9.553,22.856,9.553S12.178,15.719,11.451,24.7,15.674,38.537,19.643,38.539Z" fill="#231f20"/>
      <path d="M56.8,41.359a4.193,4.193,0,0,1-2.56-.182c-.965-.711-1.077-2.334-1.131-3.448a4.25,4.25,0,0,1-4.588,3.653c-4.228,0-6.293-1.664-7.262-6.257S39.619,22.913,40,22.153s1.9-.811,1.9-.811c1.9-.133,2.49.815,2.623,4.142s.029,12.449,3.495,12.2,4.219-8.83,4.136-10.775-.9-4.705.241-5.387,3.3-.214,3.591.318c.865,1.592.532,8.005.819,10.871S58.767,41.091,56.8,41.359Z" fill="#231f20"/>
      <path d="M63.044,14.308c1.762-1.887,5.457-1.6,5.661.328a3.117,3.117,0,0,1-1.23,2.627,4.535,4.535,0,0,1-3.367.245C62.836,17.1,62.674,15.785,63.044,14.308Zm8.363,27.031a6.7,6.7,0,0,1-8.014-6.8c-.041-4.05-.178-8.055-.178-12.106,0-.359.361-1.034.631-1.034a6,6,0,0,1,3.1,0A2.957,2.957,0,0,1,68.3,23.651c.087,4.2.046,8.392.041,12.544,0,.048.183,2.324,1.326,1.22a3.5,3.5,0,0,1,1.239-.983,2.511,2.511,0,0,1,3.242,1.575C74.557,39.223,72.891,41.069,71.407,41.339Z" fill="#231f20"/>
      <path d="M97.035,38.5c-.254.754-1.542,1.193-2.934,1.666-2.739.929-8.006,2.392-11.106,0s-3.774-6.752-3.666-8.921,1.334-9.169,6.9-9.9,10.645,1.3,10.42,2.155-.673,2.062-.673,2.062c-.548,1.673-5.357-1.5-7.461-1.278s-4.609,3.489-4.4,7.675,2.057,5.985,5.229,5.952,4.879-2.85,6.429-1.732C96.536,36.727,97.28,37.77,97.035,38.5Z" fill="#231f20"/>
      <path d="M117.518,41.218a3.613,3.613,0,0,1-4.585-2.519c-.578-2.051-.86-2.816-1.6-4.829-.125-.4-1.235-2.326-2.245-2.573a4.626,4.626,0,0,0-.86,1.673c-.628,1.5-.956,4.977-1.617,6.453-.582,1.259-1.3,2.329-2.822,1.97-1.363-.324-1.588-.43-1.588-5.32,0-8.748.329-17.528.453-26.275a5.473,5.473,0,0,0-.324-1.629,1.327,1.327,0,0,1,.432-1.453.962.962,0,0,1,.266-.156c2.311-.684,4.581.646,4.581,2.77,0,4.608.041,9.215,0,13.858-.038,1.438-.129,2.425-.254,3.865a10.536,10.536,0,0,0-.033,1.137c.357-.262.815-.609,1.006-.767a24.665,24.665,0,0,0,3.412-3.732c1.447-1.763,2.972-2.8,5.2-2.185.5.144,1.621.551,1.7.983.083.468-.752,1.634-1.164,2.031-1.114.97-2.5,2.531-3.62,3.539-1.114.973-1.21,1.139.029,2.4a17.2,17.2,0,0,1,2.764,4.537c.744,1.4,1.072,2.986,1.858,4.354C119.126,40.5,118.341,40.969,117.518,41.218Z" fill="#231f20"/>
      <path d="M179.29,40.011a2.884,2.884,0,0,1-2.839,1.463,6.951,6.951,0,0,1-.972-.073,1.852,1.852,0,0,1-1.584-1.81c-.079-8.637-.445-17.276-1.089-25.7a44.885,44.885,0,0,0-7.606,8.959,4.484,4.484,0,0,1-4.8,1.65,10.382,10.382,0,0,1-4.011-2.323,54.146,54.146,0,0,1-6.8-6.85c.278,2.928.261,5.89.249,8.774-.021,4.493-.042,9.138,1.072,13.479a2.118,2.118,0,0,1-1.022,2.361,3,3,0,0,1-3.458-.147c-1.5-1.281-1.534-3.479-1.551-4.662-.02-1.093-.033-2.186-.045-3.279-.1-7.361-.192-14.972-1.351-22.322a2.516,2.516,0,0,1,.76-2.174,3.344,3.344,0,0,1,2.794-.937,6.17,6.17,0,0,1,3.591,2.34c.927,1.06,1.779,2.184,2.6,3.271,1.841,2.427,3.582,4.722,5.964,6.291.756.488,1.766.787,2.136.368l9.518-10.549a4.834,4.834,0,0,1,1.434-1.224,3.986,3.986,0,0,1,4.93,1.772,9.5,9.5,0,0,1,1.064,4.662c.179,3.071.332,6.114.5,9.487l.814,15.129A3.9,3.9,0,0,1,179.29,40.011Z" fill="#231f20"/>
      <path d="M207.159,39.876a3.3,3.3,0,0,1-2.332,1.053c-.171.006-.337.011-.507.011a11.383,11.383,0,0,1-2.685-.31c-.167-.039-.341-.085-.516-.131a8.05,8.05,0,0,0-1.887-.332,1.943,1.943,0,0,0-1.134.311,6.535,6.535,0,0,1-3.766,1.021,19.707,19.707,0,0,1-4.115-.564c-1.841-.417-3.579-.91-4.551-2.325a5.848,5.848,0,0,1-.89-2.895,15.108,15.108,0,0,1,4.656-12.01,9.13,9.13,0,0,1,4.015-2.346,6.274,6.274,0,0,1,1.45-.173,5.133,5.133,0,0,1,2.881.825,4.043,4.043,0,0,1,2.452-1.076,1.984,1.984,0,0,1,1.193.38,3.418,3.418,0,0,1,.952,2.97l-.071,2.972q-.1,4.43-.208,8.859a2.074,2.074,0,0,0,.146.987c.116.2.361.464,1.155.464a6.814,6.814,0,0,0,1.076-.112,4.641,4.641,0,0,1,.811-.073c1.18,0,1.962.465,2.149,1.282A1.428,1.428,0,0,1,207.159,39.876Zm-9.731-13.5a2.622,2.622,0,0,1-.976-1.008,2.946,2.946,0,0,0-.466-.6,1.442,1.442,0,0,0-.927-.309,1.96,1.96,0,0,0-.636.11,4.54,4.54,0,0,0-1.538,1.078,14.282,14.282,0,0,0-4,7.467,5.33,5.33,0,0,0,.108,2.912,4.135,4.135,0,0,0,3.491,2.321,5.934,5.934,0,0,0,.615.029,11.221,11.221,0,0,0,3.928-.885,1.078,1.078,0,0,0,.37-.2,1.25,1.25,0,0,0,.208-.741q.15-2.008.308-4.009.137-1.8.27-3.587C198.3,27.515,198.056,26.673,197.428,26.38Z" fill="#231f20"/>
      <path d="M228.605,37.924a4.421,4.421,0,0,1-2.028,1.844,12.587,12.587,0,0,1-5.956,1.7,9.027,9.027,0,0,1-1.517-.126,7.3,7.3,0,0,1-5.869-4.67,11.1,11.1,0,0,1-.332-4.136c.091-2.155.253-4.474.482-6.891a.268.268,0,0,0-.058-.183.259.259,0,0,0-.179-.091,4.3,4.3,0,0,1-2.76-.973,2.225,2.225,0,0,1-.569-2.076,1.478,1.478,0,0,1,1-1.124,3.243,3.243,0,0,1,1.044-.054c.5.029.831.033,1.01-.169-.025-4.025-.05-8.188-.05-12.294a3.05,3.05,0,0,1,.245-1.459,1.611,1.611,0,0,1,1.351-.827,2.455,2.455,0,0,1,2.082.9,5.726,5.726,0,0,1,.8,3.54V21.143a3.15,3.15,0,0,0,2.461.077l.149-.031c1.214-.225,2.652.043,2.952,1.155a1.432,1.432,0,0,1-.2,1.2,3.222,3.222,0,0,1-2.145,1.2c-.149.025-.312.05-.478.075-.927.137-1.891.28-2.323.989a2.8,2.8,0,0,0-.279,1.471l-.079,5.364c0,1.735.092,3.379,1.206,4.348a3.605,3.605,0,0,0,3.08.679,5.845,5.845,0,0,0,2.614-1.114c.125-.093.249-.187.374-.284.977-.753,2.19-1.69,3.358-1.008A2.028,2.028,0,0,1,228.605,37.924Z" fill="#231f20"/>
      <path d="M251.686,38.5c-.254.754-1.542,1.193-2.935,1.666-2.739.929-8,2.392-11.105,0s-3.774-6.752-3.666-8.921,1.334-9.169,6.9-9.9,10.645,1.3,10.42,2.155-.673,2.062-.673,2.062c-.549,1.673-5.358-1.5-7.461-1.278s-4.609,3.489-4.4,7.675,2.057,5.985,5.228,5.952,4.88-2.85,6.43-1.732C251.187,36.727,251.931,37.77,251.686,38.5Z" fill="#231f20"/>
      <path d="M272.131,37.546c-.062.563-.1,1.17-.145,1.737-.079,2.112-.823,2.315-1.555,2.114-1.342-.366-3.491.2-3.25-2.315.2-1.665.553-4.664.835-6.49.487-2.519.362-4.29-.253-5.206-1.093-1.636-2.7-2.293-3.795-.628a12.428,12.428,0,0,0-1.746,4.508c-.449,2.437-.552,6.247-.877,8.724-.324,2.151-2.111,1.34-3.246,1.259a1.73,1.73,0,0,1-1.667-2.153,72.119,72.119,0,0,0,.408-7.837c0-2.354-.162-4.75-.366-7.1-.486-4.871-1.18-9.7-1.546-14.576-.079-1.015-1.176-2.883,1.139-3.168,2.153-.243,3.45.975,3.653,3.29.121,1.746.287,3.452.408,5.2.162,2.517.245,5.033.407,7.552.079,1.216.328.657,2.157-.293,3.175-1.652,6-.881,8.28,2C274.218,28.34,272.709,32.434,272.131,37.546Z" fill="#231f20"/>
    </g>
  </g>
</svg>
